# xmcd CD database file
#
# Track frame offsets:
#	150
#	4276
#	68282
#	81920
#	115020
#	141682
#	156338
#	207803
#	224718
#
# Disc length: 3391 seconds
#
# Revision: 0
# Processed by: cddbd v1.5.2PL0 Copyright (c) Steve Scherf et al.
# Submitted via: CDex 1.75
#
DISCID=820d3d09
DTITLE=Andrew Holecek - Dream Yoga d3 - Dream Yoga Induction Techniques
DYEAR=2013
DGENRE=New Age
TTITLE0=Intro
TTITLE1=The power of wind
TTITLE2=The power of visualization
TTITLE3=Inner yoga instructions
TTITLE4=The "magic" induction techniques
TTITLE5=The practice of napping
TTITLE6=Mindfulness meditation and dream yoga
TTITLE7=Patience on the path
TTITLE8=Understanding shamatha practice
EXTD=YEAR: 2013
EXTT0=
EXTT1=
EXTT2=
EXTT3=
EXTT4=
EXTT5=
EXTT6=
EXTT7=
EXTT8=
PLAYORDER=
